<?xml version="1.0" standalone="no"?><!DOCTYPE svg PUBLIC "-//W3C//DTD SVG 1.1//EN" "http://www.w3.org/Graphics/SVG/1.1/DTD/svg11.dtd"><svg t="1525671951958" class="icon" style="" viewBox="0 0 1024 1024" version="1.1" xmlns="http://www.w3.org/2000/svg" p-id="12344" xmlns:xlink="http://www.w3.org/1999/xlink" width="48" height="48"><defs><style type="text/css"></style></defs><path d="M768 665.6c-6.4-6.4-12.8-12.8-19.2-12.8-19.2 0-32 12.8-32 32 0 12.8 6.4 19.2 12.8 25.6l0 0 0 0c76.8 57.6 128 147.2 134.4 249.6l57.6 0C915.2 838.4 857.6 736 768 665.6M524.8 556.8c-115.2 0-211.2-96-211.2-211.2C307.2 224 403.2 128 524.8 128c115.2 0 211.2 96 211.2 211.2C736 460.8 640 556.8 524.8 556.8zM800 345.6c0-153.6-121.6-281.6-281.6-281.6C371.2 64 243.2 185.6 243.2 345.6c0 102.4 57.6 192 140.8 243.2C224 633.6 108.8 780.8 102.4 960l57.6 0C166.4 774.4 320 627.2 505.6 620.8l6.4 0c6.4 0 6.4 0 12.8 0C678.4 620.8 800 499.2 800 345.6z" p-id="12345" fill="#8a8a8a"></path></svg>